<svg width="51" height="16" viewBox="0 0 51 16" fill="none" xmlns="http://www.w3.org/2000/svg">
<path d="M5.07373 2.02075H10.8337C15.1622 2.02075 17.8064 4.09233 17.8064 7.9997C17.8064 11.9744 15.1453 13.9786 10.8337 13.9786H5.07373V2.02075ZM10.8506 11.0481C13.2422 11.0481 14.3706 10.0881 14.3706 7.9997C14.3706 5.86075 13.1916 4.95128 10.8506 4.95128H8.52636V11.0481H10.8506Z" fill="white"/>
<path d="M23.2115 4.95128H17.9062V2.02075H31.9862V4.96812H26.6641V13.9955H23.2115V4.95128Z" fill="white"/>
<path d="M32.072 10.0374H35.7604C35.7267 10.8458 36.8383 11.3174 38.7414 11.3174C41.032 11.3174 42.3793 10.9469 42.3793 10.29C42.3793 8.23531 32.4425 11.2837 32.4425 5.81004C32.4425 3.3511 35.0025 1.73425 38.8425 1.73425C42.7835 1.73425 45.4783 3.41846 45.512 5.96162H41.8235C41.8572 5.1532 40.8467 4.68162 39.1456 4.68162C37.1246 4.68162 35.9288 5.05215 35.9288 5.70899C35.9288 7.89846 45.8656 5.06899 45.8656 10.189C45.8656 12.6479 43.1541 14.2648 39.0614 14.2648C34.8341 14.2648 32.0214 12.5806 32.072 10.0374Z" fill="white"/>
<path d="M1.16308 8C1.16308 10.7284 2.32519 13.2884 4.37992 15.2253L3.60519 15.9832C1.19677 13.7095 0.000976562 11.0484 0.000976562 8C0.000976562 4.95158 1.19677 2.29053 3.58835 0L4.36308 0.757895C2.32519 2.71158 1.16308 5.27158 1.16308 8Z" fill="white"/>
<path d="M45.8965 0.757895L46.6712 0C49.0628 2.27368 50.2586 4.95158 50.2586 8C50.2586 11.0484 49.0628 13.7095 46.6712 16L45.8965 15.2421C47.9512 13.3053 49.1133 10.7453 49.1133 8.01684C49.1133 5.28842 47.9344 2.71158 45.8965 0.757895Z" fill="white"/>
</svg>
